<svg width="114" height="70" viewBox="0 0 114 70" fill="none" xmlns="http://www.w3.org/2000/svg">
    <ellipse cx="47.7386" cy="16.575" rx="32.7386" ry="16.575" fill="#F36767"/>
    <ellipse cx="69.2386" cy="16.575" rx="31.7614" ry="16.575" fill="#C72CEE" fill-opacity="0.6"/>
    <path d="M57.0227 16.575L89.6069 50.0437H24.4385L57.0227 16.575Z" fill="#12968E" fill-opacity="0.5"/>
    <path d="M0.880682 62V54.7273H3.33807C3.90625 54.7273 4.37263 54.8243 4.73722 55.0185C5.1018 55.2102 5.37169 55.4742 5.54688 55.8104C5.72206 56.1465 5.80966 56.5289 5.80966 56.9574C5.80966 57.3859 5.72206 57.7659 5.54688 58.0973C5.37169 58.4287 5.10298 58.6892 4.74077 58.8786C4.37855 59.0656 3.91572 59.1591 3.35227 59.1591H1.36364V58.3636H3.32386C3.71212 58.3636 4.02462 58.3068 4.26136 58.1932C4.50047 58.0795 4.6733 57.9186 4.77983 57.7102C4.88873 57.4995 4.94318 57.2486 4.94318 56.9574C4.94318 56.6662 4.88873 56.4117 4.77983 56.1939C4.67093 55.9761 4.49692 55.808 4.25781 55.6896C4.0187 55.5689 3.70265 55.5085 3.30966 55.5085H1.76136V62H0.880682ZM4.30398 58.733L6.09375 62H5.07102L3.30966 58.733H4.30398ZM8.76864 62.1278C8.423 62.1278 8.10932 62.0627 7.82759 61.9325C7.54587 61.8 7.32215 61.6094 7.15643 61.3608C6.99071 61.1098 6.90785 60.8068 6.90785 60.4517C6.90785 60.1392 6.9694 59.8859 7.09251 59.6918C7.21561 59.4953 7.38015 59.3414 7.58612 59.2301C7.79208 59.1188 8.01935 59.036 8.26793 58.9815C8.51888 58.9247 8.77101 58.8797 9.02433 58.8466C9.35576 58.804 9.62447 58.772 9.83043 58.7507C10.0388 58.727 10.1903 58.688 10.285 58.6335C10.382 58.5791 10.4306 58.4844 10.4306 58.3494V58.321C10.4306 57.9706 10.3347 57.6984 10.1429 57.5043C9.95354 57.3101 9.6659 57.2131 9.28001 57.2131C8.87991 57.2131 8.56623 57.3007 8.33896 57.4759C8.11168 57.651 7.95188 57.8381 7.85955 58.0369L7.0641 57.7528C7.20614 57.4214 7.39554 57.1634 7.63228 56.9787C7.87139 56.7917 8.13181 56.6615 8.41353 56.5881C8.69762 56.5123 8.97698 56.4744 9.2516 56.4744C9.42679 56.4744 9.62802 56.4957 9.85529 56.5384C10.0849 56.5786 10.3063 56.6626 10.5194 56.7905C10.7348 56.9183 10.9135 57.1113 11.0556 57.3693C11.1976 57.6274 11.2686 57.973 11.2686 58.4062V62H10.4306V61.2614H10.388C10.3311 61.3797 10.2364 61.5064 10.1039 61.6413C9.9713 61.7763 9.79492 61.8911 9.57475 61.9858C9.35458 62.0805 9.08588 62.1278 8.76864 62.1278ZM8.89648 61.375C9.22792 61.375 9.50728 61.3099 9.73455 61.1797C9.96419 61.0495 10.137 60.8814 10.253 60.6754C10.3714 60.4695 10.4306 60.2528 10.4306 60.0256V59.2585C10.3951 59.3011 10.3169 59.3402 10.1962 59.3757C10.0778 59.4089 9.94052 59.4384 9.78427 59.4645C9.63039 59.4882 9.48005 59.5095 9.33327 59.5284C9.18886 59.545 9.07167 59.5592 8.98171 59.571C8.76391 59.5994 8.56031 59.6456 8.37092 59.7095C8.18389 59.7711 8.03237 59.8646 7.91637 59.9901C7.80273 60.1132 7.74592 60.2812 7.74592 60.4943C7.74592 60.7855 7.85363 61.0057 8.06907 61.1548C8.28687 61.3016 8.56268 61.375 8.89648 61.375ZM13.6364 58.7188V62H12.7983V56.5455H13.608V57.3977H13.679C13.8068 57.1207 14.0009 56.8982 14.2614 56.7301C14.5218 56.5597 14.858 56.4744 15.2699 56.4744C15.6392 56.4744 15.9624 56.5502 16.2393 56.7017C16.5163 56.8509 16.7318 57.0781 16.8857 57.3835C17.0395 57.6866 17.1165 58.0701 17.1165 58.5341V62H16.2784V58.5909C16.2784 58.1624 16.1671 57.8286 15.9446 57.5895C15.7221 57.348 15.4167 57.2273 15.0284 57.2273C14.7609 57.2273 14.5218 57.2853 14.3111 57.4013C14.1027 57.5173 13.9382 57.6866 13.8175 57.9091C13.6967 58.1316 13.6364 58.4015 13.6364 58.7188ZM20.7076 62.1136C20.253 62.1136 19.8517 61.9988 19.5037 61.7692C19.1557 61.5372 18.8835 61.2105 18.687 60.7891C18.4905 60.3653 18.3922 59.8646 18.3922 59.2869C18.3922 58.714 18.4905 58.2169 18.687 57.7955C18.8835 57.3741 19.1569 57.0485 19.5073 56.8189C19.8577 56.5893 20.2625 56.4744 20.7218 56.4744C21.0769 56.4744 21.3574 56.5336 21.5634 56.652C21.7717 56.768 21.9303 56.9006 22.0392 57.0497C22.1505 57.1965 22.2369 57.3172 22.2985 57.4119H22.3695V54.7273H23.2076V62H22.3979V61.1619H22.2985C22.2369 61.2614 22.1493 61.3868 22.0357 61.5384C21.9221 61.6875 21.7599 61.8213 21.5492 61.9396C21.3385 62.0556 21.0579 62.1136 20.7076 62.1136ZM20.8212 61.3608C21.1574 61.3608 21.4415 61.2732 21.6735 61.098C21.9055 60.9205 22.0819 60.6754 22.2026 60.3629C22.3233 60.0481 22.3837 59.6847 22.3837 59.2727C22.3837 58.8655 22.3245 58.5092 22.2061 58.2038C22.0878 57.8961 21.9126 57.657 21.6806 57.4865C21.4486 57.3137 21.1621 57.2273 20.8212 57.2273C20.4661 57.2273 20.1702 57.3184 19.9334 57.5007C19.699 57.6806 19.5227 57.9257 19.4043 58.2358C19.2883 58.5436 19.2303 58.8892 19.2303 59.2727C19.2303 59.661 19.2895 60.0137 19.4078 60.331C19.5286 60.6458 19.7061 60.8968 19.9405 61.0838C20.1773 61.2685 20.4708 61.3608 20.8212 61.3608ZM27.0748 62.1136C26.5823 62.1136 26.1503 61.9964 25.7786 61.7621C25.4093 61.5277 25.1204 61.1998 24.9121 60.7784C24.7061 60.357 24.6032 59.8646 24.6032 59.3011C24.6032 58.733 24.7061 58.237 24.9121 57.8132C25.1204 57.3894 25.4093 57.0604 25.7786 56.826C26.1503 56.5916 26.5823 56.4744 27.0748 56.4744C27.5672 56.4744 27.998 56.5916 28.3674 56.826C28.7391 57.0604 29.0279 57.3894 29.2338 57.8132C29.4422 58.237 29.5463 58.733 29.5463 59.3011C29.5463 59.8646 29.4422 60.357 29.2338 60.7784C29.0279 61.1998 28.7391 61.5277 28.3674 61.7621C27.998 61.9964 27.5672 62.1136 27.0748 62.1136ZM27.0748 61.3608C27.4488 61.3608 27.7566 61.2649 27.998 61.0732C28.2395 60.8814 28.4183 60.6293 28.5343 60.3168C28.6503 60.0043 28.7083 59.6657 28.7083 59.3011C28.7083 58.9366 28.6503 58.5968 28.5343 58.282C28.4183 57.9671 28.2395 57.7126 27.998 57.5185C27.7566 57.3243 27.4488 57.2273 27.0748 57.2273C26.7007 57.2273 26.3929 57.3243 26.1515 57.5185C25.91 57.7126 25.7312 57.9671 25.6152 58.282C25.4992 58.5968 25.4412 58.9366 25.4412 59.3011C25.4412 59.6657 25.4992 60.0043 25.6152 60.3168C25.7312 60.6293 25.91 60.8814 26.1515 61.0732C26.3929 61.2649 26.7007 61.3608 27.0748 61.3608ZM30.8256 62V56.5455H31.6353V57.3977H31.7063C31.82 57.1065 32.0034 56.8804 32.2567 56.7195C32.5101 56.5561 32.8143 56.4744 33.1694 56.4744C33.5292 56.4744 33.8287 56.5561 34.0678 56.7195C34.3093 56.8804 34.4975 57.1065 34.6325 57.3977H34.6893C34.829 57.116 35.0385 56.8923 35.3178 56.7266C35.5972 56.5585 35.9322 56.4744 36.3228 56.4744C36.8105 56.4744 37.2094 56.6271 37.5195 56.9325C37.8297 57.2356 37.9847 57.7079 37.9847 58.3494V62H37.1467V58.3494C37.1467 57.947 37.0366 57.6593 36.8164 57.4865C36.5962 57.3137 36.337 57.2273 36.0387 57.2273C35.6552 57.2273 35.3581 57.3433 35.1474 57.5753C34.9367 57.8049 34.8313 58.0961 34.8313 58.4489V62H33.979V58.2642C33.979 57.9541 33.8784 57.7043 33.6772 57.5149C33.476 57.3232 33.2167 57.2273 32.8995 57.2273C32.6817 57.2273 32.4781 57.2853 32.2887 57.4013C32.1017 57.5173 31.9502 57.6783 31.8342 57.8842C31.7205 58.0878 31.6637 58.3234 31.6637 58.5909V62H30.8256ZM48.2955 57H47.4148C47.3627 56.7467 47.2715 56.5241 47.1413 56.3324C47.0135 56.1406 46.8572 55.9796 46.6726 55.8494C46.4903 55.7169 46.2879 55.6174 46.0653 55.5511C45.8428 55.4848 45.6108 55.4517 45.3693 55.4517C44.929 55.4517 44.5301 55.563 44.1726 55.7855C43.8175 56.008 43.5346 56.3359 43.3239 56.7692C43.1155 57.2024 43.0114 57.7339 43.0114 58.3636C43.0114 58.9934 43.1155 59.5249 43.3239 59.9581C43.5346 60.3913 43.8175 60.7192 44.1726 60.9418C44.5301 61.1643 44.929 61.2756 45.3693 61.2756C45.6108 61.2756 45.8428 61.2424 46.0653 61.1761C46.2879 61.1098 46.4903 61.0116 46.6726 60.8814C46.8572 60.7488 47.0135 60.5866 47.1413 60.3949C47.2715 60.2008 47.3627 59.9782 47.4148 59.7273H48.2955C48.2292 60.099 48.1084 60.4316 47.9332 60.7251C47.758 61.0187 47.5402 61.2685 47.2798 61.4744C47.0194 61.678 46.727 61.8331 46.4027 61.9396C46.0807 62.0462 45.7363 62.0994 45.3693 62.0994C44.7491 62.0994 44.1974 61.9479 43.7145 61.6449C43.2315 61.3419 42.8516 60.911 42.5746 60.3523C42.2976 59.7936 42.1591 59.1307 42.1591 58.3636C42.1591 57.5966 42.2976 56.9337 42.5746 56.375C42.8516 55.8163 43.2315 55.3854 43.7145 55.0824C44.1974 54.7794 44.7491 54.6278 45.3693 54.6278C45.7363 54.6278 46.0807 54.6811 46.4027 54.7876C46.727 54.8942 47.0194 55.0504 47.2798 55.2564C47.5402 55.46 47.758 55.7086 47.9332 56.0021C48.1084 56.2933 48.2292 56.6259 48.2955 57ZM51.8208 62.1136C51.3284 62.1136 50.8964 61.9964 50.5247 61.7621C50.1554 61.5277 49.8665 61.1998 49.6582 60.7784C49.4522 60.357 49.3493 59.8646 49.3493 59.3011C49.3493 58.733 49.4522 58.237 49.6582 57.8132C49.8665 57.3894 50.1554 57.0604 50.5247 56.826C50.8964 56.5916 51.3284 56.4744 51.8208 56.4744C52.3133 56.4744 52.7441 56.5916 53.1135 56.826C53.4851 57.0604 53.774 57.3894 53.9799 57.8132C54.1883 58.237 54.2924 58.733 54.2924 59.3011C54.2924 59.8646 54.1883 60.357 53.9799 60.7784C53.774 61.1998 53.4851 61.5277 53.1135 61.7621C52.7441 61.9964 52.3133 62.1136 51.8208 62.1136ZM51.8208 61.3608C52.1949 61.3608 52.5027 61.2649 52.7441 61.0732C52.9856 60.8814 53.1644 60.6293 53.2804 60.3168C53.3964 60.0043 53.4544 59.6657 53.4544 59.3011C53.4544 58.9366 53.3964 58.5968 53.2804 58.282C53.1644 57.9671 52.9856 57.7126 52.7441 57.5185C52.5027 57.3243 52.1949 57.2273 51.8208 57.2273C51.4468 57.2273 51.139 57.3243 50.8975 57.5185C50.6561 57.7126 50.4773 57.9671 50.3613 58.282C50.2453 58.5968 50.1873 58.9366 50.1873 59.3011C50.1873 59.6657 50.2453 60.0043 50.3613 60.3168C50.4773 60.6293 50.6561 60.8814 50.8975 61.0732C51.139 61.2649 51.4468 61.3608 51.8208 61.3608ZM55.5717 62V56.5455H56.3814V57.3977H56.4524C56.5661 57.1065 56.7495 56.8804 57.0028 56.7195C57.2562 56.5561 57.5604 56.4744 57.9155 56.4744C58.2753 56.4744 58.5748 56.5561 58.8139 56.7195C59.0554 56.8804 59.2436 57.1065 59.3786 57.3977H59.4354C59.575 57.116 59.7846 56.8923 60.0639 56.7266C60.3433 56.5585 60.6783 56.4744 61.0689 56.4744C61.5566 56.4744 61.9555 56.6271 62.2656 56.9325C62.5758 57.2356 62.7308 57.7079 62.7308 58.3494V62H61.8928V58.3494C61.8928 57.947 61.7827 57.6593 61.5625 57.4865C61.3423 57.3137 61.0831 57.2273 60.7848 57.2273C60.4013 57.2273 60.1042 57.3433 59.8935 57.5753C59.6828 57.8049 59.5774 58.0961 59.5774 58.4489V62H58.7251V58.2642C58.7251 57.9541 58.6245 57.7043 58.4233 57.5149C58.2221 57.3232 57.9628 57.2273 57.6456 57.2273C57.4278 57.2273 57.2242 57.2853 57.0348 57.4013C56.8478 57.5173 56.6963 57.6783 56.5803 57.8842C56.4666 58.0878 56.4098 58.3234 56.4098 58.5909V62H55.5717ZM64.2631 64.0455V56.5455H65.0728V57.4119H65.1722C65.2338 57.3172 65.319 57.1965 65.4279 57.0497C65.5392 56.9006 65.6978 56.768 65.9038 56.652C66.1121 56.5336 66.3938 56.4744 66.7489 56.4744C67.2082 56.4744 67.613 56.5893 67.9634 56.8189C68.3138 57.0485 68.5872 57.3741 68.7837 57.7955C68.9802 58.2169 69.0785 58.714 69.0785 59.2869C69.0785 59.8646 68.9802 60.3653 68.7837 60.7891C68.5872 61.2105 68.315 61.5372 67.967 61.7692C67.619 61.9988 67.2177 62.1136 66.7631 62.1136C66.4128 62.1136 66.1322 62.0556 65.9215 61.9396C65.7108 61.8213 65.5487 61.6875 65.435 61.5384C65.3214 61.3868 65.2338 61.2614 65.1722 61.1619H65.1012V64.0455H64.2631ZM65.087 59.2727C65.087 59.6847 65.1474 60.0481 65.2681 60.3629C65.3888 60.6754 65.5652 60.9205 65.7972 61.098C66.0292 61.2732 66.3133 61.3608 66.6495 61.3608C66.9999 61.3608 67.2923 61.2685 67.5266 61.0838C67.7634 60.8968 67.9409 60.6458 68.0593 60.331C68.18 60.0137 68.2404 59.661 68.2404 59.2727C68.2404 58.8892 68.1812 58.5436 68.0629 58.2358C67.9469 57.9257 67.7705 57.6806 67.5337 57.5007C67.2994 57.3184 67.0046 57.2273 66.6495 57.2273C66.3086 57.2273 66.0221 57.3137 65.7901 57.4865C65.5581 57.657 65.3829 57.8961 65.2646 58.2038C65.1462 58.5092 65.087 58.8655 65.087 59.2727ZM71.962 62.1278C71.6164 62.1278 71.3027 62.0627 71.021 61.9325C70.7392 61.8 70.5155 61.6094 70.3498 61.3608C70.1841 61.1098 70.1012 60.8068 70.1012 60.4517C70.1012 60.1392 70.1628 59.8859 70.2859 59.6918C70.409 59.4953 70.5735 59.3414 70.7795 59.2301C70.9854 59.1188 71.2127 59.036 71.4613 58.9815C71.7122 58.9247 71.9644 58.8797 72.2177 58.8466C72.5491 58.804 72.8178 58.772 73.0238 58.7507C73.2321 58.727 73.3836 58.688 73.4783 58.6335C73.5754 58.5791 73.6239 58.4844 73.6239 58.3494V58.321C73.6239 57.9706 73.5281 57.6984 73.3363 57.5043C73.1469 57.3101 72.8593 57.2131 72.4734 57.2131C72.0733 57.2131 71.7596 57.3007 71.5323 57.4759C71.305 57.651 71.1452 57.8381 71.0529 58.0369L70.2575 57.7528C70.3995 57.4214 70.5889 57.1634 70.8256 56.9787C71.0647 56.7917 71.3252 56.6615 71.6069 56.5881C71.891 56.5123 72.1703 56.4744 72.445 56.4744C72.6201 56.4744 72.8214 56.4957 73.0487 56.5384C73.2783 56.5786 73.4996 56.6626 73.7127 56.7905C73.9281 56.9183 74.1069 57.1113 74.2489 57.3693C74.391 57.6274 74.462 57.973 74.462 58.4062V62H73.6239V61.2614H73.5813C73.5245 61.3797 73.4298 61.5064 73.2972 61.6413C73.1647 61.7763 72.9883 61.8911 72.7681 61.9858C72.5479 62.0805 72.2792 62.1278 71.962 62.1278ZM72.0898 61.375C72.4213 61.375 72.7006 61.3099 72.9279 61.1797C73.1576 61.0495 73.3304 60.8814 73.4464 60.6754C73.5647 60.4695 73.6239 60.2528 73.6239 60.0256V59.2585C73.5884 59.3011 73.5103 59.3402 73.3896 59.3757C73.2712 59.4089 73.1339 59.4384 72.9776 59.4645C72.8237 59.4882 72.6734 59.5095 72.5266 59.5284C72.3822 59.545 72.265 59.5592 72.1751 59.571C71.9573 59.5994 71.7537 59.6456 71.5643 59.7095C71.3772 59.7711 71.2257 59.8646 71.1097 59.9901C70.9961 60.1132 70.9393 60.2812 70.9393 60.4943C70.9393 60.7855 71.047 61.0057 71.2624 61.1548C71.4802 61.3016 71.756 61.375 72.0898 61.375ZM76.8297 58.7188V62H75.9917V56.5455H76.8013V57.3977H76.8723C77.0002 57.1207 77.1943 56.8982 77.4547 56.7301C77.7151 56.5597 78.0513 56.4744 78.4632 56.4744C78.8326 56.4744 79.1557 56.5502 79.4327 56.7017C79.7097 56.8509 79.9251 57.0781 80.079 57.3835C80.2329 57.6866 80.3098 58.0701 80.3098 58.5341V62H79.4718V58.5909C79.4718 58.1624 79.3605 57.8286 79.138 57.5895C78.9154 57.348 78.61 57.2273 78.2218 57.2273C77.9542 57.2273 77.7151 57.2853 77.5044 57.4013C77.2961 57.5173 77.1316 57.6866 77.0108 57.9091C76.8901 58.1316 76.8297 58.4015 76.8297 58.7188ZM82.1857 64.0455C82.0437 64.0455 81.917 64.0336 81.8058 64.0099C81.6945 63.9886 81.6175 63.9673 81.5749 63.946L81.788 63.2074C81.9916 63.2595 82.1715 63.2784 82.3278 63.2642C82.484 63.25 82.6225 63.1802 82.7433 63.0547C82.8664 62.9316 82.9788 62.7315 83.0806 62.4545L83.2369 62.0284L81.2198 56.5455H82.1289L83.6346 60.892H83.6914L85.1971 56.5455H86.1062L83.7908 62.7955C83.6867 63.0772 83.5576 63.3104 83.4038 63.495C83.2499 63.6821 83.0711 63.8205 82.8675 63.9105C82.6663 64.0005 82.439 64.0455 82.1857 64.0455ZM90.1385 62V54.7273H91.0192V61.2188H94.3999V62H90.1385ZM94.399 55.5085V54.7273H99.8535V55.5085H97.5666V62H96.6859V55.5085H94.399ZM103.457 62H101.213V54.7273H103.556C104.262 54.7273 104.866 54.8729 105.368 55.1641C105.869 55.4529 106.254 55.8684 106.522 56.4105C106.789 56.9503 106.923 57.5966 106.923 58.3494C106.923 59.107 106.788 59.7592 106.518 60.3061C106.248 60.8506 105.855 61.2696 105.339 61.5632C104.823 61.8544 104.196 62 103.457 62ZM102.093 61.2188H103.4C104.002 61.2188 104.5 61.1027 104.895 60.8707C105.291 60.6387 105.585 60.3085 105.779 59.88C105.974 59.4515 106.071 58.9413 106.071 58.3494C106.071 57.7623 105.975 57.2569 105.783 56.8331C105.591 56.407 105.305 56.0803 104.924 55.853C104.542 55.6233 104.068 55.5085 103.5 55.5085H102.093V61.2188ZM108.438 62.0568C108.263 62.0568 108.113 61.9941 107.987 61.8686C107.862 61.7431 107.799 61.5928 107.799 61.4176C107.799 61.2424 107.862 61.0921 107.987 60.9666C108.113 60.8411 108.263 60.7784 108.438 60.7784C108.614 60.7784 108.764 60.8411 108.889 60.9666C109.015 61.0921 109.078 61.2424 109.078 61.4176C109.078 61.5336 109.048 61.6402 108.989 61.7372C108.932 61.8343 108.855 61.9124 108.758 61.9716C108.663 62.0284 108.557 62.0568 108.438 62.0568Z" fill="black"/>
</svg>